<svg width="550" height="550" viewBox="0 0 550 550" fill="none" xmlns="http://www.w3.org/2000/svg">
<path d="M422.355 289.802C422.104 247.178 441.422 215.055 480.434 191.368C458.615 160.119 425.605 142.933 382.093 139.62C340.894 136.37 295.818 163.619 279.314 163.619C261.871 163.619 221.985 140.745 190.601 140.745C125.832 141.745 57 192.368 57 295.364C57 325.8 62.5641 357.237 73.6923 389.61C88.5715 432.234 142.212 536.667 198.165 534.98C227.424 534.292 248.117 514.231 286.191 514.231C323.139 514.231 342.269 534.98 374.903 534.98C431.357 534.167 479.871 439.234 494 396.485C418.291 360.799 422.355 291.989 422.355 289.802V289.802ZM356.648 99.1842C388.345 61.5607 385.469 27.312 384.531 15C356.523 16.6249 324.139 34.0618 305.696 55.4984C285.378 78.4975 273.437 106.934 276 138.995C306.259 141.308 333.892 125.746 356.648 99.1842V99.1842Z" fill="white"/>
</svg>
