<svg width="36" height="36" viewBox="0 0 36 36" fill="none" xmlns="http://www.w3.org/2000/svg">
<path d="M1.85143 9.87429V5.86286C1.85143 3.59697 3.59697 1.85143 5.86286 1.85143H9.87429C10.3855 1.85143 10.8 1.43697 10.8 0.925714C10.8 0.414456 10.3855 0 9.87429 0H5.86286C2.57446 0 0 2.57446 0 5.86286V9.87429C0 10.3855 0.414456 10.8 0.925714 10.8C1.43697 10.8 1.85143 10.3855 1.85143 9.87429Z" fill="white"/>
<path d="M34.1486 9.87429V5.86286C34.1486 3.59697 32.403 1.85143 30.1371 1.85143H26.1257C25.6145 1.85143 25.2 1.43697 25.2 0.925714C25.2 0.414456 25.6145 0 26.1257 0H30.1371C33.4255 0 36 2.57446 36 5.86286V9.87429C36 10.3855 35.5855 10.8 35.0743 10.8C34.563 10.8 34.1486 10.3855 34.1486 9.87429Z" fill="white"/>
<path d="M1.85143 26.1257V30.1371C1.85143 32.403 3.59697 34.1486 5.86286 34.1486H9.87429C10.3855 34.1486 10.8 34.563 10.8 35.0743C10.8 35.5855 10.3855 36 9.87429 36H5.86286C2.57446 36 0 33.4255 0 30.1371V26.1257C0 25.6145 0.414456 25.2 0.925714 25.2C1.43697 25.2 1.85143 25.6145 1.85143 26.1257Z" fill="white"/>
<path d="M34.1486 26.1257V30.1371C34.1486 32.403 32.403 34.1486 30.1371 34.1486H26.1257C25.6145 34.1486 25.2 34.563 25.2 35.0743C25.2 35.5855 25.6145 36 26.1257 36H30.1371C33.4255 36 36 33.4255 36 30.1371V26.1257C36 25.6145 35.5855 25.2 35.0743 25.2C34.563 25.2 34.1486 25.6145 34.1486 26.1257Z" fill="white"/>
<path d="M9.7895 13.5959V16.1688C9.7895 16.7013 10.1924 17.133 10.6895 17.133C11.1866 17.133 11.5895 16.7013 11.5895 16.1688V13.5959C11.5895 13.0633 11.1866 12.6316 10.6895 12.6316C10.1924 12.6316 9.7895 13.0633 9.7895 13.5959Z" fill="white"/>
<path d="M24.6316 13.5959V16.1688C24.6316 16.7013 25.0345 17.133 25.5316 17.133C26.0286 17.133 26.4316 16.7013 26.4316 16.1688V13.5959C26.4316 13.0633 26.0286 12.6316 25.5316 12.6316C25.0345 12.6316 24.6316 13.0633 24.6316 13.5959Z" fill="white"/>
<path d="M11.6694 26.5873C13.4249 28.2258 15.551 29.0527 18 29.0527C20.449 29.0527 22.5751 28.2258 24.3306 26.5873C24.7131 26.2303 24.7338 25.6309 24.3768 25.2484C24.0198 24.8659 23.4203 24.8452 23.0378 25.2022C21.6354 26.5111 19.9721 27.1579 18 27.1579C16.0279 27.1579 14.3646 26.5111 12.9622 25.2022C12.5797 24.8452 11.9802 24.8659 11.6232 25.2484C11.2662 25.6309 11.2869 26.2303 11.6694 26.5873Z" fill="white"/>
<path d="M18 13.579V20.2105C18 20.6349 17.7926 20.8421 17.3661 20.8421H16.7368C16.2136 20.8421 15.7895 21.2663 15.7895 21.7895C15.7895 22.3127 16.2136 22.7369 16.7368 22.7369H17.3661C18.8385 22.7369 19.8947 21.6819 19.8947 20.2105V13.579C19.8947 13.0557 19.4706 12.6316 18.9474 12.6316C18.4241 12.6316 18 13.0557 18 13.579Z" fill="white"/>
</svg>
