<svg width="25" height="16" viewBox="0 0 25 16" fill="none" xmlns="http://www.w3.org/2000/svg">
<path fill-rule="evenodd" clip-rule="evenodd" d="M21.6576 8.5603V11.1315H19.7295V8.5603H17.0794V6.69125H19.7295V4.12008H21.6576V6.69125H24.3077V8.5603H21.6576ZM7.92199 15.3846C3.71682 15.3846 0.307678 12.0788 0.307678 7.99997C0.307678 3.92115 3.71682 0.615356 7.92199 0.615356C9.90208 0.615356 11.7052 1.34899 13.0592 2.55038L10.8151 4.68138C10.0341 4.04031 9.02504 3.6533 7.92199 3.6533C5.44689 3.6533 3.43981 5.59916 3.43981 7.99997C3.43981 10.4008 5.44689 12.3466 7.92199 12.3466C9.83707 12.3466 11.4711 11.1817 12.1132 9.54209H7.82599V6.45786H12.1132H15.3443H15.3703C15.4793 6.95516 15.5363 7.47116 15.5363 7.99997C15.5363 12.0788 12.1272 15.3846 7.92199 15.3846Z" fill="white"/>
</svg>
