<svg width="22" height="22" viewBox="0 0 22 22" fill="none" xmlns="http://www.w3.org/2000/svg">
<path fill-rule="evenodd" clip-rule="evenodd" d="M20.7071 0.292893C21.0976 0.683417 21.0976 1.31658 20.7071 1.70711L19.4142 3L21.7071 5.29289C22.0976 5.68342 22.0976 6.31658 21.7071 6.70711L18.2071 10.2071C17.8166 10.5976 17.1834 10.5976 16.7929 10.2071L14.5 7.91421L11.7536 10.6607C12.061 11.0765 12.3185 11.5285 12.5197 12.0075C12.8517 12.7978 13.0241 13.646 13.027 14.5033C13.0299 15.3605 12.8632 16.2099 12.5364 17.0024C12.2097 17.795 11.7294 18.5151 11.1233 19.1213C10.5171 19.7274 9.79699 20.2077 9.00444 20.5344C8.21189 20.8612 7.36253 21.0279 6.50528 21.025C5.64803 21.0221 4.79981 20.8497 4.00947 20.5177C3.21913 20.1857 2.50227 19.7006 1.90017 19.0904L1.89267 19.0828C0.708643 17.8568 0.0535207 16.2149 0.0683304 14.5106C0.0831402 12.8063 0.766738 11.176 1.97189 9.97089C3.17704 8.76574 4.80733 8.08214 6.5116 8.06733C7.88443 8.0554 9.21679 8.47819 10.3238 9.26194L19.2929 0.292893C19.6834 -0.0976311 20.3166 -0.0976311 20.7071 0.292893ZM18 4.41421L15.9142 6.5L17.5 8.08579L19.5858 6L18 4.41421ZM3.3276 17.6895C2.51021 16.8412 2.05802 15.7061 2.06825 14.528C2.07851 13.3481 2.55177 12.2194 3.3861 11.3851C4.22044 10.5508 5.3491 10.0775 6.52898 10.0673C7.70887 10.057 8.84558 10.5106 9.69429 11.3303C9.70335 11.339 9.71255 11.3476 9.72185 11.3559C10.1283 11.7656 10.4522 12.2498 10.6758 12.7821C10.9057 13.3293 11.025 13.9165 11.027 14.51C11.029 15.1035 10.9136 15.6915 10.6874 16.2402C10.4612 16.7889 10.1287 17.2874 9.70904 17.707C9.28938 18.1267 8.79086 18.4592 8.24217 18.6854C7.69348 18.9116 7.10546 19.027 6.51198 19.025C5.9185 19.023 5.33127 18.9037 4.78411 18.6738C4.2386 18.4446 3.74365 18.1101 3.3276 17.6895ZM3.3276 17.6895L3.33129 17.6933L2.612 18.388L3.32383 17.6856L3.3276 17.6895Z" fill="#49B436"/>
</svg>
