<svg width="21" height="20" viewBox="0 0 21 20" fill="none" xmlns="http://www.w3.org/2000/svg">
<path fill-rule="evenodd" clip-rule="evenodd" d="M4.22039 12.887C5.00179 12.1056 6.0616 11.6667 7.16667 11.6667H13.8333C14.9384 11.6667 15.9982 12.1056 16.7796 12.887C17.561 13.6684 18 14.7283 18 15.8333V17.5C18 17.9602 17.6269 18.3333 17.1667 18.3333C16.7064 18.3333 16.3333 17.9602 16.3333 17.5V15.8333C16.3333 15.1703 16.0699 14.5344 15.6011 14.0656C15.1323 13.5967 14.4964 13.3333 13.8333 13.3333H7.16667C6.50363 13.3333 5.86774 13.5967 5.3989 14.0656C4.93006 14.5344 4.66667 15.1703 4.66667 15.8333V17.5C4.66667 17.9602 4.29357 18.3333 3.83333 18.3333C3.3731 18.3333 3 17.9602 3 17.5V15.8333C3 14.7283 3.43899 13.6684 4.22039 12.887Z" fill="#858797"/>
<path fill-rule="evenodd" clip-rule="evenodd" d="M10.5 3.33332C9.11927 3.33332 7.99998 4.45261 7.99998 5.83332C7.99998 7.21404 9.11927 8.33332 10.5 8.33332C11.8807 8.33332 13 7.21404 13 5.83332C13 4.45261 11.8807 3.33332 10.5 3.33332ZM6.33331 5.83332C6.33331 3.53214 8.19879 1.66666 10.5 1.66666C12.8012 1.66666 14.6666 3.53214 14.6666 5.83332C14.6666 8.13451 12.8012 9.99999 10.5 9.99999C8.19879 9.99999 6.33331 8.13451 6.33331 5.83332Z" fill="#858797"/>
</svg>
